<?xml version="1.0" encoding="UTF-8"?>
<svg id="Layer_1" xmlns="http://www.w3.org/2000/svg" version="1.1" viewBox="0 0 137.2 137.2">
  <!-- Generator: Adobe Illustrator 30.5.1, SVG Export Plug-In . SVG Version: 2.1.4 Build 3)  -->
  <defs>
    <style>
      .st0 {
        fill: #fff;
      }

      .st1 {
        fill: #5cb4e0;
      }
    </style>
  </defs>
  <circle class="st0" cx="68.6" cy="68.6" r="68.6"/>
  <path class="st1" d="M89.9,42.7c-2.6,0-4.7,2.1-4.7,4.7s2.1,4.7,4.7,4.7,4.7-2.1,4.7-4.7-2.1-4.7-4.7-4.7Z"/>
  <path class="st1" d="M68.9,48.7c-10.9,0-19.8,8.9-19.8,19.8s8.9,19.8,19.8,19.8,19.8-8.9,19.8-19.8-8.9-19.8-19.8-19.8ZM68.9,81.2c-7,0-12.7-5.7-12.7-12.7s5.7-12.7,12.7-12.7,12.7,5.7,12.7,12.7-5.7,12.7-12.7,12.7Z"/>
  <path class="st1" d="M84.7,108.7h-32.1c-13.3,0-24.2-10.8-24.2-24.2v-32.1c0-13.3,10.8-24.2,24.2-24.2h32.1c13.3,0,24.2,10.8,24.2,24.2v32.1c0,13.3-10.8,24.2-24.2,24.2ZM52.5,35.9c-9.1,0-16.6,7.4-16.6,16.6v32.1c0,9.2,7.4,16.6,16.6,16.6h32.1c9.2,0,16.6-7.4,16.6-16.6v-32.1c0-9.1-7.4-16.6-16.6-16.6h-32.1Z"/>
</svg>