<?xml version="1.0" encoding="UTF-8"?>
<svg id="Layer_1" data-name="Layer 1" xmlns="http://www.w3.org/2000/svg" viewBox="0 0 137.2 137.2">
  <defs>
    <style>
      .cls-1 {
        fill: #5cb4e0;
        fill-rule: evenodd;
      }

      .cls-2 {
        fill: #fff;
      }
    </style>
  </defs>
  <circle class="cls-2" cx="68.6" cy="68.6" r="68.6"/>
  <path class="cls-1" d="M105.56,87.1v-.02s-.03-.02-.07-.05h-.02c-.9-.57-1.82-.66-2.39-.87-.02,0-.03,0-.03-.02-3.92-1.23-7.3-3.9-9.83-7.16-1.4-1.82-2.58-3.78-3.36-5.88v-.03c-.31-.9-.33-1.91.12-2.51,0,0,.02,0,.02-.02.71-1.01,2.01-1.65,3.38-2.15h.02c1.54-.54,3.21-1.14,4.58-2.36.02,0,.02-.02.03-.02.21-.19.47-.45.66-.85.03-.09.09-.19.1-.31.1-.36.1-.81-.09-1.2v-.02c-.4-.8-1.07-1.23-1.59-1.53h-.02c-.85-.5-1.85-.54-2.74-.24h-.02c-.94.28-1.72.62-2.43.71-.02,0-.03,0-.05.02-1.01.17-1.99.21-2.76-.07-.02-.1-.02-.33-.05-.61h.02c-.07-1.66.09-3.38.1-5.16v-.02c.09-2.7.19-5.48-.21-8.28v-.03c-.88-4.73-3.92-8.8-7.76-11.51-2.79-1.98-6.12-3.07-9.5-3.38h0c-1.16-.1-2.29-.14-3.41-.14-4.56.04-9.29,1.23-12.98,4.12-2.77,2.17-4.96,5.04-6.33,8.25v.02c-1.32,3.29-1.2,6.81-1.02,10.07h0c.1,2.29.36,4.51.16,6.62-.02.07-.02.1-.03.14-1.02.19-2.15.12-3.26-.09h-.02c-.76-.12-1.58-.43-2.5-.69-.02,0-.03,0-.05-.02-.88-.19-1.77.05-2.43.55-.02,0-.03,0-.03.02-.02.02-.03.02-.03.03-.56.35-1.3.95-1.34,1.99-.02.07,0,.12,0,.19.02,0,0,.02.02.02.1.61.48,1.06.83,1.35.35.29.66.49.85.64.02,0,.03.02.05.03,1.66,1.11,3.5,1.59,5.11,2.22h0c1.11.49,2.06,1.23,2.29,2.18.28,1.2-.24,2.58-.9,3.92v.02c-1.8,3.54-4.47,6.62-7.76,8.89-1.73,1.18-3.67,2.06-5.7,2.6-.02,0-.05.02-.09.03-.42.16-1.4.24-2.03,1.18-.03.07-.07.14-.1.23-.21.59.03,1.23.33,1.59.28.33.59.54.87.68.02,0,.03.02.05.02,1.7.99,3.57,1.4,5.27,1.84.02,0,.02.02.02.02,1.23.26,2.37.42,3.29.82.03.07.14.38.35.9.31.94.45,2.03.8,3.19.1.31.38.57.71.64.78.17,1.2-.09,1.27-.1h.1c2.84-.5,5.7-.94,8.32-.29h0c2.74.73,5.13,2.62,7.82,4.23v.02h0c1.79,1.11,3.85,2.2,6.24,2.29h.02c1.8.11,3.55-.02,5.28-.12h.03c1.47-.14,2.89-.64,4.16-1.42.02-.02.04-.03.05-.03,2.83-1.61,5.32-3.54,8.08-4.75h.02c.88-.31,2.01-.29,3.24-.38h.03c2.29-.07,4.56.05,6.83.35.07.02.16.02.23,0,.31-.03.62-.24.78-.43.17-.19.21-.36.24-.48.07-.23.12-.33.02-.14.03-.07.07-.12.09-.19.42-1.37.64-2.6,1.32-3.36.29-.3.82-.43,1.4-.43h.12c1.98-.23,3.74-.94,5.42-1.53.02-.02.05-.02.07-.02.62-.28,1.56-.59,2.2-1.47v-.02h0c.54-.75.28-1.77-.47-2.22h0Z"/>
</svg>