<?xml version="1.0" encoding="UTF-8"?>
<svg id="Layer_1" data-name="Layer 1" xmlns="http://www.w3.org/2000/svg" viewBox="0 0 137.2 137.2">
  <defs>
    <style>
      .cls-1 {
        fill: #fff;
      }

      .cls-2 {
        fill: #5cb4e0;
      }
    </style>
  </defs>
  <circle class="cls-1" cx="68.6" cy="68.6" r="68.6"/>
  <path class="cls-2" d="M97.17,62.23c-.55.05-1.09.08-1.64.08-6.02,0-11.63-3.03-14.92-8.06v27.46c0,11.21-9.09,20.29-20.29,20.29s-20.29-9.09-20.29-20.29,9.09-20.29,20.29-20.29h0c.42,0,.84.04,1.25.06v10c-.42-.05-.83-.13-1.25-.13-5.72,0-10.36,4.64-10.36,10.36s4.64,10.36,10.36,10.36,10.77-4.51,10.77-10.23l.1-46.63h9.57c.9,8.58,7.82,15.28,16.42,15.91v11.11"/>
</svg>